<svg xmlns="http://www.w3.org/2000/svg" width="232" height="35" viewBox="0 0 232 35">
    <g fill="none" fill-rule="evenodd">
        <path fill="#0780B4" fill-rule="nonzero" d="M1.22 20.315c.074-1.296.401-2.368.966-3.217a6.516 6.516 0 0 1 2.171-2.055 9.442 9.442 0 0 1 2.96-1.103c1.1-.216 2.2-.327 3.309-.327 1.004 0 2.03.074 3.056.216 1.034.141 1.978.417 2.826.834a5.58 5.58 0 0 1 2.09 1.727c.542.738.81 1.713.81 2.927V29.75c0 .909.052 1.772.156 2.599.104.827.282 1.445.543 1.862H14.53a8.161 8.161 0 0 1-.253-.954 7.214 7.214 0 0 1-.134-.99 7.08 7.08 0 0 1-3.1 1.899 12.33 12.33 0 0 1-3.637.544c-.952 0-1.844-.12-2.67-.35a6.145 6.145 0 0 1-2.17-1.088 5.067 5.067 0 0 1-1.45-1.861c-.35-.752-.521-1.639-.521-2.674 0-1.14.2-2.077.602-2.807.402-.737.915-1.326 1.547-1.765a6.985 6.985 0 0 1 2.171-.99 23.33 23.33 0 0 1 2.461-.522c.826-.126 1.636-.23 2.44-.313a13.92 13.92 0 0 0 2.126-.35c.617-.156 1.108-.38 1.472-.677.365-.298.528-.73.506-1.296 0-.596-.097-1.065-.29-1.415a2.138 2.138 0 0 0-.773-.812 3.086 3.086 0 0 0-1.123-.387 8.863 8.863 0 0 0-1.376-.097c-1.085 0-1.933.231-2.558.7-.617.462-.981 1.244-1.085 2.324H1.219v-.015zm12.7 4.073c-.23.209-.52.365-.87.484a7.97 7.97 0 0 1-1.123.29c-.401.075-.818.142-1.256.194-.44.053-.878.12-1.317.194a8.616 8.616 0 0 0-1.22.313 3.636 3.636 0 0 0-1.048.521 2.495 2.495 0 0 0-.713.834c-.179.335-.268.76-.268 1.28 0 .492.09.91.268 1.245.178.335.423.603.736.796a3.2 3.2 0 0 0 1.085.41c.41.074.84.12 1.28.12 1.085 0 1.925-.18 2.513-.545.595-.364 1.033-.796 1.316-1.295.282-.507.46-1.013.52-1.534.067-.514.097-.931.097-1.244v-2.063z"/>
        <path fill="#6EC069" d="M22.635 6.509h7.05l5.42 8.839 5.614-8.84h6.663l-8.864 13.226 9.644 14.462H40.92l-6.038-9.577-6.157 9.577h-6.811l9.644-14.507z"/>
        <path fill="#0780B4" fill-rule="nonzero" d="M54.52 29.393c.825.804 2.015 1.198 3.562 1.198 1.108 0 2.067-.275 2.863-.834.803-.558 1.293-1.146 1.472-1.764h4.84c-.773 2.405-1.962 4.125-3.561 5.16-1.599 1.035-3.54 1.55-5.808 1.55-1.576 0-2.996-.254-4.26-.76-1.264-.507-2.335-1.222-3.213-2.153-.877-.93-1.554-2.04-2.03-3.336-.476-1.295-.713-2.71-.713-4.267 0-1.497.245-2.897.736-4.185.49-1.296 1.19-2.413 2.09-3.35a9.623 9.623 0 0 1 3.234-2.228c1.249-.543 2.64-.811 4.164-.811 1.703 0 3.19.327 4.454.99 1.264.663 2.305 1.542 3.116 2.659.81 1.11 1.398 2.375 1.762 3.798.364 1.422.49 2.911.387 4.46h-14.44c.066 1.773.52 3.068 1.345 3.873zm6.216-10.553c-.661-.722-1.658-1.087-3.004-1.087-.877 0-1.606.15-2.186.447-.58.298-1.048.663-1.39 1.102a4.07 4.07 0 0 0-.737 1.393c-.14.491-.223.93-.252 1.318h8.945c-.26-1.385-.721-2.443-1.376-3.173z"/>
        <path fill="#0780B4" d="M74.917 29.214c.245.424.557.774.951 1.05.387.275.833.469 1.339.603a6.422 6.422 0 0 0 1.569.194 5.93 5.93 0 0 0 1.22-.134c.423-.09.81-.231 1.16-.425.349-.193.639-.454.87-.774.23-.32.349-.73.349-1.222 0-.826-.55-1.444-1.643-1.861-1.101-.41-2.625-.827-4.588-1.244a25.734 25.734 0 0 1-2.343-.64c-.758-.246-1.442-.566-2.03-.968a4.719 4.719 0 0 1-1.435-1.512c-.364-.61-.543-1.348-.543-2.227 0-1.295.253-2.353.759-3.18a5.582 5.582 0 0 1 1.993-1.958c.825-.477 1.754-.812 2.788-1.005 1.034-.194 2.09-.29 3.175-.29 1.086 0 2.134.103 3.153.312 1.019.208 1.926.558 2.729 1.05a6.257 6.257 0 0 1 1.993 1.958c.528.812.848 1.84.952 3.083h-5.228c-.074-1.057-.476-1.78-1.197-2.152-.721-.372-1.576-.566-2.558-.566-.312 0-.647.023-1.004.06-.364.037-.691.12-.989.253-.297.127-.55.32-.758.566-.208.246-.313.574-.313.99 0 .492.179.894.543 1.2.365.312.833.558 1.413.759.58.194 1.242.365 1.993.521.75.157 1.51.32 2.283.507a21.73 21.73 0 0 1 2.342.662c.759.261 1.435.604 2.03 1.028.595.425 1.07.953 1.435 1.586.365.633.543 1.415.543 2.346 0 1.318-.268 2.42-.796 3.314A6.315 6.315 0 0 1 85 33.25c-.855.544-1.83.923-2.923 1.147-1.1.216-2.215.327-3.346.327-1.16 0-2.297-.119-3.405-.35-1.108-.23-2.097-.618-2.96-1.161a6.605 6.605 0 0 1-2.127-2.152c-.557-.894-.855-2.011-.907-3.351h5.228c-.015.566.111 1.08.357 1.504zM94.867 29.214c.246.424.558.774.952 1.05.387.275.833.469 1.338.603a6.422 6.422 0 0 0 1.57.194 5.93 5.93 0 0 0 1.219-.134c.424-.09.81-.231 1.16-.425.35-.193.64-.454.87-.774.23-.32.35-.73.35-1.222 0-.826-.55-1.444-1.644-1.861-1.1-.41-2.625-.827-4.588-1.244a25.734 25.734 0 0 1-2.342-.64c-.759-.246-1.443-.566-2.03-.968a4.719 4.719 0 0 1-1.435-1.512c-.365-.61-.543-1.348-.543-2.227 0-1.295.253-2.353.758-3.18a5.582 5.582 0 0 1 1.993-1.958c.826-.477 1.755-.812 2.789-1.005 1.033-.194 2.09-.29 3.175-.29s2.134.103 3.153.312c1.018.208 1.925.558 2.729 1.05a6.257 6.257 0 0 1 1.992 1.958c.528.812.848 1.84.952 3.083h-5.227c-.075-1.057-.476-1.78-1.197-2.152-.722-.372-1.577-.566-2.558-.566-.313 0-.647.023-1.004.06-.365.037-.692.12-.99.253-.297.127-.55.32-.758.566-.208.246-.312.574-.312.99 0 .492.178.894.543 1.2.364.312.833.558 1.413.759.58.201 1.241.365 1.992.521.751.157 1.51.32 2.283.507a21.73 21.73 0 0 1 2.343.662c.758.261 1.435.604 2.03 1.028.594.425 1.07.953 1.435 1.586.364.633.543 1.415.543 2.346 0 1.318-.268 2.42-.796 3.314a6.315 6.315 0 0 1-2.075 2.152c-.855.544-1.829.923-2.922 1.147-1.1.216-2.216.327-3.346.327-1.16 0-2.298-.119-3.406-.35-1.108-.23-2.097-.618-2.96-1.161a6.605 6.605 0 0 1-2.126-2.152c-.558-.894-.855-2.011-.907-3.351h5.227c-.007.566.112 1.08.357 1.504z"/>
        <path fill="#231F20" fill-rule="nonzero" d="M140.27 18.416l4.224-10.53h-.974l-2.171 5.675h-.03l-2.171-5.675h-.974l2.707 6.74-1.517 3.797h.907v-.007zm-8.164-3.143v-.714h.03c.238.26.55.476.944.655a3.14 3.14 0 0 0 1.309.268c.989 0 1.77-.35 2.357-1.058.588-.707.878-1.653.878-2.844 0-1.17-.305-2.115-.908-2.83-.602-.715-1.383-1.072-2.327-1.072-.907 0-1.621.305-2.142.923h-.03v-3.5h-.914v10.187h.803v-.015zm.67-6.173c.371-.395.862-.596 1.472-.596.795 0 1.405.268 1.829.82.424.543.632 1.295.632 2.256 0 .968-.208 1.72-.625 2.256-.416.536-1.033.812-1.836.812-.573 0-1.056-.164-1.443-.492-.387-.327-.587-.707-.587-1.146v-2.607c.007-.469.193-.908.557-1.303z"/>
        <path fill="#067FB3" d="M160.563 15.102h-.922c-.61 0-.87-.395-.87-.953v-4.066h1.792V8.936h-1.792v-2.16h-1.286v7.35c0 1.55.773 2.212 2.156 2.212h.922v-1.236zM148.175 12.838v.052c0 2.63 2.15 3.575 4.157 3.575 1.963 0 3.933-.938 3.933-3.024 0-2.025-1.658-2.569-3.212-2.919l-.543-.119c-1.398-.305-2.602-.566-2.602-1.6 0-1.483 1.524-1.647 2.178-1.647 1.436 0 2.268.693 2.41 1.989v.044h1.36l-.007-.052c-.074-2.04-1.435-3.202-3.718-3.202-1.814 0-3.658.916-3.658 2.971 0 1.832 1.524 2.316 3.227 2.689l.334.074c1.435.305 2.796.596 2.796 1.825 0 1.526-1.546 1.757-2.468 1.757-.781 0-1.48-.201-1.978-.566-.566-.41-.863-1.028-.863-1.787v-.052h-1.346v-.008z"/>
        <path fill="#067FB3" fill-rule="nonzero" d="M168.319 15.147l-.074.03a.896.896 0 0 1-.342.067c-.313 0-.328-.164-.328-.753v-3.7c0-1.378-.9-2.034-2.75-2.034-1.124 0-3.02.313-3.102 2.458v.06h1.287v-.045c.044-.901.602-1.326 1.74-1.326 1.056 0 1.546.365 1.546 1.155 0 .655-.661.744-1.576.87-.26.038-.52.075-.803.127-1.257.239-2.476.618-2.476 2.272 0 1.295.914 2.077 2.431 2.077 1.026 0 1.852-.365 2.491-1.05.052.85.588 1.05 1.041 1.05.372 0 .655-.074.878-.208l.022-.015v-1.035h.015zm-4.172.09c-.401 0-1.338-.098-1.338-.999 0-.871.714-1.124 1.405-1.25.216-.038.432-.068.655-.09.55-.075 1.078-.142 1.427-.35 0 0 .03-.015 0 0v1.124c0 .604-.587 1.564-2.149 1.564z"/>
        <path fill="#067FB3" d="M169.457 8.936v7.313h1.294V12.13c0-1.378.773-2.204 2.074-2.204.87 0 1.406.543 1.406 1.4v4.922h1.293V11.46c0-1.81-.832-2.689-2.528-2.689-1.033 0-1.807.402-2.32 1.214v-1.05h-1.22z"/>
        <path fill="#067FB3" fill-rule="nonzero" d="M182.365 6.188v3.634c-.542-.774-1.531-1.057-2.29-1.057-2.037 0-3.346 1.49-3.346 3.798 0 1.065.305 2.018.84 2.696.603.752 1.473 1.161 2.536 1.161 1.056 0 1.866-.387 2.26-1.057v.878h1.294V6.188h-1.294zm-2.097 9.078c-1.502 0-2.178-1.31-2.178-2.614 0-.819.208-2.733 2.104-2.733 2.052 0 2.216 2.048 2.216 2.681 0 1.296-.565 2.666-2.142 2.666zM191.831 15.17l-.067.029a.944.944 0 0 1-.342.067c-.32 0-.334-.171-.334-.752v-3.709c0-1.37-.9-2.033-2.744-2.033-1.13 0-3.02.32-3.108 2.465v.052h1.286v-.052c.045-.893.602-1.318 1.74-1.318 1.056 0 1.54.372 1.54 1.147 0 .655-.663.745-1.57.879-.26.037-.528.074-.81.126-1.25.246-2.476.61-2.476 2.272 0 1.295.907 2.077 2.431 2.077 1.026 0 1.852-.365 2.491-1.05.052.85.588 1.05 1.041 1.05.38 0 .655-.074.885-.208l.022-.015v-1.028h.015zm-4.179.096c-.409 0-1.33-.097-1.33-1.005 0-.872.706-1.125 1.397-1.244.208-.037.432-.067.655-.097.557-.067 1.078-.141 1.427-.35 0 0 .03-.015 0 0v1.125c0 .603-.58 1.571-2.149 1.571z"/>
        <path fill="#067FB3" d="M196.843 8.772h-.052c-1.205-.037-2.015.447-2.617 1.58V8.935h-1.22v7.313h1.287v-3.262c0-1.943.817-2.86 2.543-2.86h.06V8.773z"/>
        <path fill="#067FB3" fill-rule="nonzero" d="M202.658 6.188v3.634c-.55-.774-1.532-1.057-2.298-1.057-2.022 0-3.338 1.49-3.338 3.798 0 1.065.297 2.018.847 2.696.595.752 1.465 1.161 2.528 1.161 1.056 0 1.867-.387 2.268-1.057v.878h1.294V6.188h-1.301zm-2.097 9.078c-1.502 0-2.171-1.31-2.171-2.614 0-.819.2-2.733 2.104-2.733 2.045 0 2.209 2.048 2.209 2.681-.008 1.296-.566 2.666-2.142 2.666z"/>
        <path fill="#067FB3" d="M150.837 26.406l-.007.045c-.134 1.735-1.212 2.822-2.811 2.822-1.108 0-1.963-.402-2.543-1.213-.52-.715-.788-1.713-.788-2.905 0-1.087.282-2.062.788-2.762.58-.79 1.457-1.207 2.528-1.207 1.45 0 2.469.775 2.73 2.078l.007.045h1.435l-.008-.06c-.149-1.028-.632-1.87-1.405-2.45-.729-.544-1.673-.834-2.737-.834-1.464 0-2.684.536-3.54 1.556-.78.939-1.219 2.264-1.219 3.731 0 3.232 1.785 5.243 4.648 5.243 1.234 0 2.275-.373 3.034-1.073.736-.692 1.19-1.72 1.316-2.963l.007-.053h-1.435zM153.507 20.196V30.27h1.286v-4.133c0-1.385.78-2.204 2.075-2.204.87 0 1.413.536 1.413 1.393v4.944h1.286v-4.803c0-1.802-.825-2.68-2.528-2.68-.766 0-1.785.29-2.246 1.109v-3.694h-1.286v-.007z"/>
        <path fill="#067FB3" fill-rule="nonzero" d="M162.266 25.297v-.052c.045-.894.602-1.311 1.74-1.311 1.056 0 1.547.365 1.547 1.147 0 .655-.655.752-1.57.886-.26.03-.52.074-.802.127-1.257.238-2.484.618-2.484 2.256 0 1.303.915 2.078 2.44 2.078 1.018 0 1.858-.35 2.483-1.043.052.842.595 1.043 1.048 1.043.372 0 .647-.067.878-.201l.022-.015v-1.028l-.074.022a.944.944 0 0 1-.342.067c-.305 0-.32-.163-.32-.76v-3.708c0-1.362-.9-2.025-2.759-2.025-1.123 0-3.019.32-3.1 2.457v.052h1.293v.008zm1.13 3.976c-.401 0-1.338-.096-1.338-1.012 0-.872.706-1.117 1.405-1.237.216-.037.432-.067.647-.096.558-.067 1.078-.142 1.428-.35 0 0 .03-.015 0 0v1.117c0 .61-.58 1.578-2.142 1.578zM203.952 30.264v-10.06h-1.294v3.633c-.55-.774-1.532-1.057-2.298-1.057-2.022 0-3.338 1.49-3.338 3.798 0 1.057.297 2.018.847 2.695.595.753 1.465 1.147 2.528 1.147 1.056 0 1.867-.38 2.268-1.042v.878h1.287v.008zm-3.391-.99c-1.502 0-2.171-1.311-2.171-2.607 0-.82.2-2.74 2.104-2.74 2.045 0 2.209 2.055 2.209 2.673-.008 1.296-.566 2.673-2.142 2.673zM182.722 27.993c-.215.826-.847 1.28-1.784 1.28-.662 0-1.22-.208-1.606-.603-.387-.41-.588-.998-.58-1.66H184.128l.007-.053c.052-1.295-.35-2.531-1.063-3.284-.573-.588-1.324-.893-2.246-.893-1.993 0-3.435 1.593-3.435 3.798.074 2.45 1.353 3.842 3.502 3.842 1.65 0 2.781-.886 3.116-2.435h-1.287v.008zm-1.963-4.059c1.078 0 1.926.827 2.008 1.929h-4.008c.097-.976.744-1.929 2-1.929zM194.761 28.007c-.223.82-.855 1.266-1.785 1.266-.661 0-1.212-.208-1.598-.603-.394-.41-.603-.998-.595-1.66h5.383v-.053c.052-1.295-.35-2.531-1.063-3.284-.572-.588-1.33-.893-2.238-.893-2 0-3.436 1.593-3.436 3.798.075 2.45 1.354 3.842 3.503 3.842 1.643 0 2.773-.879 3.108-2.42h-1.279v.007zm-1.963-4.073c1.078 0 1.933.827 2.015 1.929h-4.015c.089-.976.75-1.929 2-1.929z"/>
        <path fill="#067FB3" d="M169.992 30.264v-3.27c0-1.958.81-2.859 2.55-2.859h.053V22.78h-.052c-1.212-.037-2.03.447-2.625 1.564v-1.408h-1.22v7.328h1.294zM186.7 30.264v-3.262c0-1.95.811-2.86 2.551-2.86h.052v-1.355h-.052c-1.212-.037-2.023.447-2.617 1.572V22.95h-1.22v7.32h1.287v-.007zM176.744 29.117h-.915c-.617 0-.87-.395-.87-.968v-4.051h1.785V22.95h-1.785v-2.16h-1.286v7.343c0 1.556.773 2.22 2.156 2.22h.915v-1.237z"/>
        <path fill="#9BB8D6" d="M216.333 33.101c-.878.529-1.68.834-2.521.834-2.171 0-3.986-1.78-4.09-3.924l4.239-2.525 6.58 2.942-4.208 2.673z"/>
        <path fill="#AAD2A2" d="M218.846 22.251l-3.138-1.385c-1.405-.633-2.736-1.147-2.736-2.696 0-.804.237-1.221.624-1.646l6.648 2.935-1.65.953c-.455.275-.774.528-.774.871.015.38.446.707 1.026.968"/>
        <path fill="#9BB8D6" d="M221.94 7.73l-3.22 1.958c-.29.172-.67.455-.67.886 0 .485.744.864 1.406 1.177l-4.038-1.78c-1.19-.521-2.372-1.117-2.372-2.554 0-.603.17-1.095.453-1.512l8.715-5.332c1.049.596 2.06 1.795 2.06 3.404 0 1.712-.877 2.874-2.335 3.753"/>
        <path fill="#AAD2A2" d="M228.788 14.037l-.803.454-6.663-2.941 7.74-4.67c1.05.604 2.068 1.796 2.068 3.397.007 1.727-.84 2.911-2.342 3.76"/>
        <path fill="#9BB8D6" d="M223.174 19.697l3.933 1.735c1.48.663 1.926 1.437 1.926 2.42 0 .559-.312 1.117-.766 1.504l-6.625-2.949 1.123-.625c.951-.521 1.264-.834 1.264-1.184 0-.372-.216-.61-.855-.901"/>
        <path fill="#34AC4A" d="M230.186 34.255c-1.68-1.295-3.465-2.167-5.637-3.157l-10.046-4.453c-2.52-1.125-4.194-2.629-4.194-5.154 0-2.457 1.19-3.648 2.73-4.617l.557-.35c-.387.417-.624.842-.624 1.639 0 1.549 1.323 2.07 2.736 2.703l11.682 5.153c2.03.879 3.889 2.383 3.889 4.937 0 1.408-.536 2.674-1.093 3.3"/>
        <path fill="#067FB3" d="M229.003 24.895l-.728.461c.446-.387.766-.945.766-1.504 0-.975-.454-1.757-1.934-2.42l-12.492-5.503c-2.52-1.117-4.09-2.562-4.09-5.079 0-2.316 1.153-3.828 2.974-4.945a2.617 2.617 0 0 0-.453 1.512c0 1.43 1.182 2.026 2.372 2.554l12.15 5.362c2.209.983 3.993 2.457 3.993 5.153 0 2.108-.989 3.426-2.558 4.409"/>
    </g>
</svg>
